/* XPM */
static char *grass_cntd_line[] = {
/* columns rows colors chars-per-pixel */
"256 48 27 1 ",
"  c #24161A",
". c #231F1B",
"X c #381C24",
"o c #1A2731",
"O c #393229",
"+ c #243D34",
"@ c #452A2F",
"# c #473E33",
"$ c #663F39",
"% c #2F5538",
"& c #584D3F",
"* c #40713C",
"= c #273644",
"- c #2A4E4F",
"; c #366365",
": c #675A4A",
"> c #786956",
", c #53786F",
"< c #8B7F5C",
"1 c #55864A",
"2 c #669344",
"3 c #5E8F79",
"4 c #A5AB37",
"5 c #809D49",
"6 c #90A440",
"7 c #C9955A",
"8 c #E5B181",
/* pixels */
"252255552222255225225555222225522522555522222555222555225222225225511*.OOO&772522522**OOOOO7722222211*..OOO7755222211*..OOO775522528<<>O&&22255225277>OO&&22255255288&&OO&22552225277>OO&&2225522522555222222222252255552222255225225555222225522522555522222552",
"2525525525222552252552552522255225255555252225552555555555225552255111OOOO&788522551**..OOO7725222211*..O.O8855222211*..O.O8855225888>>O&&22255225288&&O>>22255225288>&O&&22255225288&&O>>2225522222222222222222252552552522255225255255252225522525525525222552",
"5555525225225555555552522522555555555552552255555555525555555555555111OOO&&887755551**.OOOO8855555211*.OO.<8888855211*.OO.<8855587788>>&>&22555588888<&O>>22555555588&&OO&22555555588<&O>>2255552788882278888882888822255552225255522555522288885555525225225555",
"5555552225555555555555555555555555555555555555555555555555555555555111OO&&&778885551**..OOO8855555211*.OOO77888855211*.OOO88855588877<>&>&555555888877&O&&25555555588>&OO&555555555888&O&&2555557788888778887887888877885555225555525555887788885555552225555555",
"5555522255552555555555555555555555555555555555555555555222255555555111O&&&&><77<5551**..OOO8855552211*.OOO7<<<<<52211*.OOO88<555<77<<<<>>&552555<<<<<:&&O&&5255555588>OOOO552555555<88&&O&&52555&&><<><&&&:><<>><<<<<7888555522555555558887<<<<<5555522255552555",
"2552525555525555555555555555555555555555555555555225552222255552522111&&&>&<<7775551**.OOOO7855225521*OOO<<<88<&25521*OOO<77<555>><777<>>&222225&<<&<<O>&O&2555525587>OOO&525555255<77<>&O&25555>>77<:::::&:><<>&<<&<<88875552252555557888<<88<&2552525555525555",
"5525555555225552555555555555555555555555555555552255555225555222222111&&&>><<7772551**.O.OO7825522221*O..<<888<<22221*O..7775552>>777<<<&>222222<<>>:<<>>O&1225255287<OOO&2255525525777>>O&12252<>7::::<>>>::><<<<>>:<<777755225552557777<<888<<5525555555225552",
"5555555555555522555555525555555555555555555555552555222255555522222211&4&><><7<>2551**.O.OO<85555551**OOO<::><<<5551**OOO88<5522<<7<<77<<>222222<<<>::<O>>&&122155587<OO&&5555225555<88O>>&&1221::>><77<<<>>>>><<<<>::<778822525555228877<::><<<5555555555555522",
"555555555555555555555222222125555555255555525555222222222555525552221114&>>7><>>5551**...OO<<5555511**OO<&&<<>>>5511**OO<88<5555<<<<777<42222225>>><<&&<O>>&111155577>OO&&5555555555<88<O>>&1111::::>:&&&&&:>:&:>>><<&&<<88225225552288<<&&<<>>>5555555555555555",
"5555555255555555552552222212222222122222552255522222222222222225522222144>>747>>5551**...OO785551111*OOO&&<<77<>1111*OOO88855555>><7477<42222225><77<<&&OOO&&11155587>OO&&55555555555888OOO&&111:::&:>:<77<><<<>><77<<&&<77225525552277<&&<<77<>5555555255555555",
"5525555255552255555522222211111111222222225555221111111111222211522222114>>747>>5551**...OO88255111*OO<O&<O&:>>>111*OO<<88752255><<<47<<42222225>>>:&O<&O<OO&&1155288>OO&O55225555255788<<OO&&11::::&::>>>>>>::>>>>:&O<&O<<>22255522><<O&<O&:>>>5525555255552255",
"5255555555252555525222211111111111111122225555551111111111111111552222555&>44<>>5551**O..OO88525OOOO7<&&&O&&::::OOOO7888<<252555<<<<44<555222255::::&&O&&&<7OOOO52588&OOOO252555525552<<8887OOOO>&#&:>:>>>><4::>::::&&O&&&<7252552527<&&&O&&::::5255555555252555",
"255555555525552222222111*%+OOOOOOO&&&11112255555OOOOOOOOOOOOOOOO2255525555544>>>2251**O.OOO8855277<<<<&&O&&&::::77<<788855255522<>><445555255522OOOOO&&O&&<<<<7725588&&OOO255522255552558887<<77>&##4::>6>>44<>>OOOOO&&O&&<<25252552<<&&O&&&::::2555555555255522",
"5555555225525522522221*%+OOO7788888&&&&O1125225577777888887777882255255225544>>>2251**O.OOO88555777><<&&O&&&O122777<785225525522>>>>4552255255221**OOOOO&&<<>77755588>&OO&525522555555522587<777>&2244&>644444251**OOOOO&&<<>525555><<&&O&&&O1225555555225525522",
"2255252255222255222211+OOOO778888888&&&&O12525558888888888888888552222552252552255211*.OOOO<7522225>77O&&&O122222222252255222255225525225522225521***OOO&O77>25522577>&OO&2222552255252255222255555554426642225521***OOO&O77>555225>77O&&&O122222255252255222255",
"252255225222225525221*OOOOO7882222888&&OO&2555222222222222222222552222252252225255211*..O.O<8252252>>OOO&O222222252255225222225525225522522222552211**OOOOO>>25525287<&O&&222255252255225222225555525522522222552211**OOOOO>>252252>>OOO&O2222222522552252222255",
",,,,,,,,,,,,,,,,,,,,,,,,,,,,,,,,,,,,,,,,,,,,,,,,,,,,,,,,,,,,,,,,,,,,,,,;--;-OOO5,,,,,,,;--;-&>>2,,,,,,,;--;-OOO5,,,,,,,;;;;-&&&22&&&;;;;,,,,,,,,2&&&;;;;,,,,,,,,2<<>;,;;,,,,,,,,25<>,;;;,,,,,,,,2666652222266552<<<2555222<<25522522555<222225522522555522222552",
",,,,,,,,,,,,,,,,,,,,,,,,,,,,,,,,,,,,,,,,,,,,,,,,,,,,,,,,,,,,,,,,,,,,,,;;--;&O&&&,,,,,,,;;--&&&55,,,,,,;;--;&O&&&,,,,,,,,;-,&&&O2<>&&;;,;,,,,,,,,<>&&;;,;,,,,,,,,2<<>&,,;,,,,,,,,25<<>;;;,,,,,,,,<<66&&&&62>66<<<<<<<<<<<>222<522266<<<5<<66OO55&2525525525222552",
",,,,,,,,,,,,,,,,,,,,,,,,,,,,,,,,,,,,,,,,,,,,,,,,,,,,,,,,,,,,,,,,,,,,,,;;--,&&&>>,,,,,,;;;-&&&>55,,,,,,;;--,&&&>>,,,,,,,,;-,&&&&5<<<>&;;;,,,,,,,,<<<>&;;;,,,,,,,,5>>>&&;;,,,,,,,,55<<<;-;,,,,,,,,<<>>>&&&>>6>>&&><<<<<<<<>><<<5<25<<66>>>>6&OO&&>5555525225225555",
",,,,,,,,,,,,,,,,,,,,,,,,,,,,,,,,,,,,,,,,,,,,,,,,,,,,,,,,,,,,,,,,,,,,,,;;;--,&>><,,,,,,;;;-;&&>55,,,,,,;;;--,&>><,,,,,,,,;-;;&&&5><<<>;,;;,,,,,,,><<<>;,;;,,,,,,,52>&&&-;,,,,,,,,<<2<<,-;,,,,,,,,<<>>>>&O>>>>>&&>><<<>>>>>>&&O<<<5<&66><>>>&&O&&>5555552225555555",
",,,,,,,,,,,,,,,,,,,,,,,,,,,,,,,,,,,,,,,,,,,,,,,,,,,,,,,,,,,,,,,,,,,,,,,;;---,><<,,,,,,;;;--;O>>2,,,,,,,;;---,><<,,,,,,,,;-;;=&O5><<<>;,;;,,,,,,,><<<>;,;;,,,,,,,2>>O;--;,,,,,,,,<<5>,,-;,,,,,,,,<<<>>>&O>>>>&&&>>>>>>>&&&&&&OO<<5&&&>><<>>>&O&&>5555522255552555",
",,,,,,,,,,,,,,,,,,,,,,,,,,,,,,,,,,,,,,,,,,,,,,,,,,,,,,,,,,,,,,,,,,,,,,,,;;--3><<,,,,,,;;;--,OO&2,,,,,,,,;;--3><<,,,,,,,;;--;--55><>&;,;;,,,,,,,,><>&;,;;,,,,,,,,2&&&,--,,,,,,,,,<<5&&3;;,,,,,,,,<<<>>>&->>>&&&&>>>>>>&&>>&&OO&><25&&&&<<>>,=-&&>2552525555525555",
",,,,,,,,,,,,,,,,,,,,,,,,,,,,,,,,,,,,,,,,,,,,,,,,,,,,,,,,,,,,,,,,,,,,,,,,,;---,><,,,,,,,;--;,;&>2,,,,,,,,,;---,><,,,,,,,;--==-&52>>&;,;;;,,,,,,,,>>&;,;;;,,,,,,,,2>&;,;;,,,,,,,,,<22&&3;;;,,,,,,,<<<>,,,,33,,;;&>>>&&&&&>>&OO&&&255>>2&><>3-==-&>5525555555225552",
",,,,,,,,,,,,,,,,,,,,,,,,,,,,,,,,,,,,,,,,,,,,,,,,,,,,,,,,,,,,,,,,,,,,,,,,,,;---,,,,,,,,,;--,,&&22,,,,,,,,,,;---,,,,,,,,;;-===&&22;,,,;;;,,,,,,,,,;,,,;;;,,,,,,,,,22>&,,;,,,,,,,,,22<&><,,;,,,,,,,,,33,;==----===;>333,=>>&OO&&&&255>22&&,3---==-;5555555555555522",
",,,,,,,,,,,,,,,,,,,,,,,,,,,,,,,,,,,,,,,,,,,,,,,,,,,,,,,,,,,,,,,,,,,,,,,,,;,;--;;,,,,,,,;--,&&&25,,,,,,,,,;,;--;;,,,,,;;;-==-&>25---;;;;,,,,,,,,,---;;;;,,,,,,,,,52<>&,;,,,,,,,,,<<<5><,,;,,,,,,,-------------=--3,;===;;;;O&&&&&555>>&=-----;===5555555555555555",
",,,,,,,,,,,,,,,,,,,,,,,,,,,,,,,,,,,,,,,,,,,,,,,,,,,,,,,,,,,,,,,,,,,,,,,,,,;;;---,,,,,,,;-;3&&>>2,,,,,,,,,,;;;---,,,,;;;-==-&>225---;;;;,,,,,,,,,---;;;;,,,,,,,,,2><<>3;,,,,,,,,,5<56>>3,,;,,,,,,-----;--;;;---------======;&&&>&55&><==--;;;;-==5555555255555555",
",,,,,,,,,,,,,,,,,,,,,,,,,,,,,;;;;;;,,,,,,,,,,,,,;;;;;;;;;;;;;;;;,,,,,,,,,,,,;;;-,,,,,,;;-;,&&>55;;;,,,,,,,,,;;;-;;;;;--==&&&<<25--;;;;,,,,,,,,,,--;;;;,,,,,,,;;;2><<>,;,,,,,,,,,55<6OOO-,;;;;;;;;;;;,,,,,,;;;;-----;;---===,&>>>5>>><-=-;;;;;;-=5525555255552255",
",,,,,,,,,,,,,,,,,,,,,,,,,;,;;;----;;,,,,,,,,,,,,----------------,,,,,,,,,,,,,;;;,,,,,,;;--,&&O55--;;,,,,,,,,,;;;-------&&&&><<25;;;;,,,,,,,,,,,,;;;;,,,,,;,;;;--2&&>>,-,,,,,,,,,52<<<6&&;-------;,,,,,,,,,,,,;;-;;;;;;;-===3&>>>5>>&<3-;;;,,,;;;5255555555252555",
",,,,,,,,,,,,,,,,,,,,,,,,;;;;;--OO--;;,,,,,,,,,,,O&&2&&OOOO&&5OOO,,,,,,,,,,,,;,,;,,,,,,;;--;,OO55O--;;,,,,,,,;,,;&2&&OO&&>22<<222;;;,,,,,,,,,,,,,;;;,,,,,;;;;;--O222&,;-,,,,,,,,,266<<66&O&&&&&&O,,,,,,,,,;;;;;;;;,,;;;;--==3>>>25>&>-3;;;,,,;;;,2555555555255522",
",,,,,,,,,,,,,,,,,,,,,,,;;;;;-OOOOOO-;,,,,,,,,,,,5>>55>>>>2>522>>,,,,,,,,,,,,,,;;,,,,,,,;;--3&&25OOO-;,,,,,,,,,;;>>22>&2222222<<2;,,,,,,,,,,,,,,,;,,,,,,;;;;;-OOO52&&3--,,,,,,,,,555>>>66O&&&>>>>;;,,,,,,,,,;;;;;;;,,,,;---=,>>>255><>3;;,,,,,,;;5555555225525522",
",,,,,,,,,,,,,,,,,,,,,,,;;---&&&OO&>&-;,,,,,,,,,,5225522222552225,,,,,,,,,,,,,,,,,,,,,,,;;--3&>>2O&>&-;,,,,,,,,,,>>2225222<<2<<25,,,,,,,,,,,,,,,,,,,,,,,;;---&&&O2>&&3;;,,,,,,,,,2255>2265522>>>>,,,,,,,,,,,,,,,,,,,,,,,;--=;&&OO2&<<>;;,,,,,,,,,2255252255222255",
",,,,,,,,,,,,,,,,,,,,,,,;----&&&22>>>-;;,,,,,,,,,2222252222222222,,,,,,,,,,,,,,,,,,,,,,,;--;-&>>22>>>-;;,,,,,,,,,2522552222222255,,,,,,,,,,,,,,,,,,,,,,,;----&&&22>>&,;;;,,,,,,,,2522552252222255,,,,,,,,,,,,,,,,,,,,,,,;---;OOOO2&><;;;,,,,,,,,,2522552252222255",
"2522555522222552252255552222255225225555222225522522555522222552252222***%%%+*1125222222**%111*125225521%2%*  *125225521%2%*  *122222*111*%22552222222111*%22552%%***221*%222552222222111*%2255222222*%*222*12*122222**1222*  *122221*%1222*  X212221*%1222*++*1",
"25255255252225522525525525222552252552552522255225255255252225522522221**%%%%+**252552211%%*111*2525521%222%*%+%2525521%222%*%+%22221%****%225521221*11111%22552%++%%%%%%*2225521221*11111%225522222*%*1222112%12221*+*12222%++*1221*%*12222%%221121*%*12222%+%*",
"55555252252255555555525225225555555552522522555555555252252255555555222111*%%%++55555221*%+%%%%%555551%12222%%%%555551%12222%%%%%%*%%%@@*1225555%%%%%%111*%25555%%%%*11111*25555%%%%*%111*%25555%%%%+%122222**%+%%%%%*122222*%%%%%%%%*122222**%%%%%%%*112222*%+%",
"5555552225555555555555222555552*555555222555555555555522255555555555522211**%**15555552*%2*%%**%55555%122222**1155555%122222*+**111111+ *5555555111**%%%%%*255*5%%***11111%25555*11111%%%%*255*5111**%1222221***111**%122222*%***11**%122222**11*%***%122222*%++",
"555552225555255555555222555522*15555522255552555%5555222555525*555555222221*%**15555522%*22**11*5555%%+*11*%%1115555%%+1111%+*2*111111%*155525551111*o+*111*5%1*%%****111*%52555*11111%*111*5%1*1111* %1221*%%**1111*o+*11*%+*2**11**o+*11*%%111%****++%***%+%%%",
"25525255555255552552525555522*2255525255555255551%525*5555525*1*255252222211%%*12552521%1221*122*552%%*******111*552%%%******12211121***255255551111%***11*%%*22%+%%++$%**125555**111*%111*%%*211111%%*%*%%**%**1111%*******%122**1*%%*******111%%**%%*%*11*%%**",
"5525555555225552552555555522%122*22555555522555212%5*1*25522%1215525555522111%%%552551%*2222**22*12%+**11111*****125%*%%**%%*222****%+1555225552%**%%**111***222%++%  X +*225552**%*%%%11*%%**22***%+**111111**%%**%%**111***2222%*%+**11111*****%+%+*1*%11**%**",
"555555555555552255555555551%12221*55555555555522212*122*225%11225555555522211+  555551%*22221%%%1*1+%**11111*%%%2*1%*12*%%%*1222X$$%**5555555522X$@@**1111**1222+++%%%*+*5555522++++%12%%%%**222X$$@%*1111111%  X$@@**1111**122221%+%**11111*%%%%%++%12**%%%%+++",
"55555555555555555555555555*1122222*2*2555555555521211222*22*1222555555552221**o 555552+*121*%@$ 22*2*%**11**%%%%22*%*222**%*1222 X  *55555555555    %***11*12222+++%%*2%*5555555++++*222%%**1222 X  %**1111*%+o     %***11*1222222%%+%**11**%%%%++++*222**++%*++",
"555555525555555555555552551*12221*%*2*25555555551%1*12222**%1111555555525221****55555*%+%**%%+  1*%*2*o@$%@**%*%22%*12222%X%1222%%%*155255555555****o%o@$%X*2222%+%%*222%5555555+%+*12222%**1222%%%*o%++%%%  %******o%o@$%X*22222*%%%%o@$%@**%*%+++*12222%+%11%+",
"552555525555225555255552551%%*****%*22*555552255+%*1122221*%+%%%55255552522*****55255+*11111**%+**%*22* @@X**%**21%*122221+%%%%%****255255552255*****%  @@+%%%%%%%%*12221%552255%%%*122221*++%%%****%   @@X  %*******%  @@+%%%%%%%%%%+% @@X**%**++%*122221%111*%",
"52555555552525555255555555**111**%*1221*55252555***112222*%****1525555555521****52555%*112211*++*%*1221*  +%%***1%*112222*%*******12555555252555******%o o%*111*%%**122221%52555***112222*%****1******+    +**********%o o%*111****%%*1%  +%%****%*112222*11111*",
"25555555552555222555555551%*111%***2222*55255522*22%%*%%%%%*1111255555555525522125555%**122**+%%***2222*%****222%21%*****+%***1*255555555525552225*******%**111**%%%12221*%55522*21%**1**+%***1122**********221125*******%**111**%%%*122%****222%21%*111*%*11***",
"5555555225525522555555522*%**+%*1%*22221255255221221%*%%**%%*11*555555522552552255552*%o@@@o+%%*1%*222212**122221221%%%***%*****5555555225525522551******%**111***%%%%**%%2255221221%%%***%**11%551*******115522551******%**111**%%**222%**12222*221%%%%**%+%%+%",
"2255252255222255225525222%%%+%**1+*121*%*522225522221%%%*2%%%%%*225525225522225522551*%  X %%%*11+*121*%*%22222212221****1%*%%%*22552522552222552252*1*11%%%****111****11*%2225512221****1%%%*%12252****112222552252*1*11%%%****1%**12222%2222221222*****1+%**%*",
"25225522522222552522552252%+*1%11+%****%1*22225522221*%*221+%%*12522552252222255252211*%++%%%**21+%****%1*22222222221***22*  @*12522552252222255252255225%o  @*11221**12221%225512221***22*+++122522552252222255252255225%o  @*11%**12222%22222212221***22+%**%*"
};
